<?xml version="1.0" ?><!DOCTYPE svg  PUBLIC '-//W3C//DTD SVG 1.1//EN'  'http://www.w3.org/Graphics/SVG/1.1/DTD/svg11.dtd'><svg height="512px" style="enable-background:new 0 0 512 512;" version="1.1" viewBox="0 0 512 512" width="512px" xml:space="preserve" xmlns="http://www.w3.org/2000/svg" xmlns:xlink="http://www.w3.org/1999/xlink"><g id="_x31_6-uber_x2C__car_x2C__driver"><g><g><path d="M255.625,16.75c-126.515,0-230.072,99.346-237.853,224.298h163.292v-44.861     c0-8.253,6.68-14.951,14.912-14.951h119.301c8.23,0,14.91,6.698,14.91,14.951v119.625c0,8.255-6.68,14.953-14.91,14.953H195.977     c-8.232,0-14.912-6.698-14.912-14.953v-44.859H17.772C25.553,395.897,129.11,495.25,255.625,495.25     c131.559,0,238.604-107.335,238.604-239.25C494.229,124.083,387.184,16.75,255.625,16.75L255.625,16.75z M255.625,16.75" style="fill:#194AF8;"/></g></g></g><g id="Layer_1"/></svg>